<svg version="1.1" id="Layer_1" xmlns="http://www.w3.org/2000/svg" xmlns:xlink="http://www.w3.org/1999/xlink" x="0px" y="0px"
	 width="100%" viewBox="0 0 308 404" enable-background="new 0 0 308 404" xml:space="preserve">
<path fill="#000000" opacity="1.000000" stroke="none" 
	d="
M309.000000,153.000000 
	C309.000000,237.333328 309.000000,321.166656 309.000000,405.000000 
	C206.333344,405.000000 103.666687,405.000000 1.000025,405.000000 
	C1.000017,270.333344 1.000017,135.666702 1.000008,1.000043 
	C103.666649,1.000029 206.333298,1.000029 308.999969,1.000014 
	C309.000000,51.500000 309.000000,102.000000 309.000000,153.000000 
M125.870865,306.500427 
	C125.582726,306.312469 125.294579,306.124481 125.006653,305.995422 
	C125.006653,305.995422 125.059143,305.968719 124.811531,305.438049 
	C124.215973,304.945129 123.620415,304.452209 122.997368,303.999695 
	C122.997368,303.999695 123.040344,303.976562 122.798584,303.377075 
	C121.197357,301.996918 119.596130,300.616760 117.509605,298.741852 
	C114.032410,294.790436 110.555214,290.839050 106.907089,286.219604 
	C106.209007,284.537903 105.510933,282.856232 104.555000,280.530487 
	C102.621521,277.791290 100.688042,275.052094 98.679588,272.297760 
	C98.679588,272.297760 98.608871,272.268616 98.573952,271.493683 
	C97.634422,268.584961 96.694901,265.676270 95.755379,262.767548 
	C95.275482,262.873260 94.795593,262.978973 94.315697,263.084686 
	C94.081490,265.305267 93.847275,267.525879 93.605377,270.359558 
	C93.436501,273.601013 93.267632,276.842499 93.023346,281.007324 
	C93.048752,295.594727 93.074158,310.182098 93.069420,325.708954 
	C93.378769,333.433624 93.688110,341.158264 93.919907,348.947754 
	C93.919907,348.947754 93.882645,349.041687 92.972473,349.028351 
	C85.854492,349.028595 78.726471,348.798767 71.621994,349.108704 
	C66.761009,349.320709 64.864777,347.824921 64.964699,342.678894 
	C65.208801,330.107208 64.907036,317.524872 64.907585,304.019409 
	C64.930130,301.854126 64.971474,299.688873 64.972511,297.523590 
	C65.008675,221.730896 65.041039,145.938187 66.000984,70.086052 
	C74.953171,70.077530 83.905357,70.069008 92.995987,70.691124 
	C93.048141,70.899925 93.100296,71.108727 93.089958,72.201599 
	C93.118233,89.477112 93.146515,106.752625 93.087395,124.958038 
	C93.087395,136.022369 93.087395,147.086685 93.087395,158.151016 
	C93.582237,158.170151 94.077072,158.189285 94.571915,158.208420 
	C94.987457,156.489929 95.402992,154.771439 96.265671,152.512054 
	C97.471359,150.006775 98.677048,147.501495 100.245262,144.399536 
	C101.955124,141.820389 103.767120,139.302109 105.349449,136.646973 
	C107.413620,133.183304 109.295799,129.611206 111.815529,125.771523 
	C118.555786,118.852638 125.296043,111.933762 132.631149,104.690895 
	C133.484436,104.188202 134.470398,103.825645 135.171310,103.162025 
	C147.533875,91.457092 162.841064,84.817101 178.621536,77.896523 
	C179.093048,77.610786 179.564575,77.325050 180.573624,76.955475 
	C181.775665,76.692787 182.977692,76.430099 184.759750,75.960335 
	C185.501892,75.610069 186.244034,75.259796 187.472946,74.858696 
	C187.472946,74.858696 187.954117,74.769279 188.752151,74.754982 
	C199.218338,73.219109 209.684525,71.683235 221.017578,70.080750 
	C224.384018,70.389549 227.750473,70.698341 231.255966,71.590759 
	C231.326965,71.984314 231.397949,72.377861 231.281906,73.579315 
	C231.150238,74.674667 231.018570,75.770020 230.392929,77.559563 
	C230.254974,82.324081 230.037567,87.087936 229.997650,91.853271 
	C229.937469,99.036240 229.988678,98.954750 222.586151,99.089401 
	C219.371017,99.147896 216.163452,99.621704 212.269745,100.010780 
	C211.178833,100.332245 210.087921,100.653717 208.171997,101.033745 
	C193.998154,102.538193 181.076187,107.605293 168.296768,115.059464 
	C166.974274,116.150368 165.651794,117.241264 163.967972,118.686096 
	C163.713104,118.906731 163.458252,119.127357 162.493698,119.373253 
	C159.706909,121.625946 156.920135,123.878639 153.684799,126.542992 
	C152.846024,127.423454 152.007263,128.303909 150.519791,129.407471 
	C146.991562,133.238968 143.463333,137.070465 139.434967,141.283295 
	C138.662247,142.267838 137.889526,143.252380 136.566544,144.587112 
	C132.314102,149.446396 127.950539,154.242081 127.091866,161.075882 
	C127.091866,161.075882 127.076614,161.114349 126.483849,161.135727 
	C125.734573,161.659454 124.513000,162.044205 124.311417,162.729126 
	C122.821014,167.793320 121.533768,172.917297 120.013596,178.775284 
	C118.969055,183.177307 117.924515,187.579330 116.385544,192.371902 
	C116.067596,197.942139 115.749649,203.512390 115.419441,209.783478 
	C115.450371,210.483536 115.481300,211.183594 115.311348,212.752777 
	C115.259712,214.819351 115.208076,216.885925 115.195816,219.616577 
	C115.546310,220.413025 115.896805,221.209457 116.262459,222.705688 
	C116.230316,223.170944 116.198174,223.636185 116.010544,224.272064 
	C115.911545,224.506424 115.958298,224.711014 116.140083,224.928040 
	C116.140083,224.928040 116.177940,224.905533 116.112679,225.736618 
	C118.391357,234.489105 119.721207,243.644241 123.216339,251.880508 
	C126.691643,260.070038 132.343063,267.336090 137.130966,275.715576 
	C137.423813,276.464447 137.516037,277.418182 138.039841,277.931274 
	C145.090179,284.837555 151.706635,292.313629 159.436340,298.363556 
	C167.032150,304.308685 175.144775,310.012543 185.768311,311.976715 
	C187.494232,312.595276 189.220154,313.213837 191.653717,314.084137 
	C199.515457,317.292236 207.527390,319.683868 216.727142,318.750458 
	C216.908478,318.806122 217.089798,318.861786 217.815491,319.512238 
	C223.249512,319.673584 228.686523,320.026550 234.116669,319.941254 
	C239.342056,319.859161 244.560333,319.323792 250.158218,318.248535 
	C250.417252,316.790863 250.898422,315.333710 250.901749,313.875427 
	C250.946442,294.328583 250.957581,274.781433 250.862106,255.234909 
	C250.853592,253.491714 250.045273,251.752426 248.937561,249.653885 
	C239.330673,249.484268 229.723801,249.314651 219.288940,249.048401 
	C213.714035,246.920624 208.121689,244.836853 202.574982,242.637939 
	C200.935822,241.988129 199.425507,241.013367 197.463272,239.698318 
	C196.528854,238.869247 195.594437,238.040176 194.570557,236.572342 
	C193.755951,235.370880 192.941345,234.169434 191.933029,232.275864 
	C177.229019,208.802628 188.711319,180.029892 212.825073,171.915222 
	C217.590149,171.279297 222.338837,170.347092 227.124451,170.082443 
	C233.102951,169.751892 239.129562,170.223633 245.097260,169.805161 
	C246.999924,169.671738 250.302368,167.878632 250.359039,166.717758 
	C250.630127,161.164703 250.006470,155.567932 249.034058,149.571152 
	C238.600830,149.370941 228.167480,149.075317 217.734558,149.090378 
	C216.419891,149.092300 215.107605,150.728256 212.914398,151.402649 
	C210.275162,151.969452 207.635910,152.536240 204.253265,153.207306 
	C198.652191,154.242081 193.675110,156.424301 189.406998,161.333603 
	C186.526031,163.871185 183.645065,166.408768 180.246017,169.317337 
	C178.563141,171.907364 176.880280,174.497406 175.156525,177.101471 
	C175.156525,177.101471 175.120636,177.125565 174.544174,177.467667 
	C173.435150,179.689041 172.326141,181.910400 170.825439,184.686798 
	C170.150070,186.388702 169.474701,188.090622 168.283920,190.070526 
	C168.052078,191.095627 167.820236,192.120712 167.623154,193.800156 
	C167.665344,194.454056 167.707520,195.107971 167.182190,196.201569 
	C163.904251,201.463318 163.367126,207.026413 165.281891,213.536270 
	C165.241104,213.756897 165.200302,213.977539 164.993454,214.335205 
	C164.885117,214.550674 164.922348,214.741898 165.071030,214.954407 
	C165.071030,214.954407 165.123825,214.932968 165.135040,215.588867 
	C165.391586,216.411423 165.648132,217.233963 166.005859,218.858536 
	C166.744308,222.198761 167.482758,225.538971 168.221268,229.649109 
	C168.544403,231.101257 168.569427,232.710098 169.237366,233.981033 
	C175.095306,245.127167 182.490997,255.125610 193.547363,261.500854 
	C198.597565,264.412842 204.561722,265.739838 210.981354,267.860138 
	C217.303528,268.268036 223.625702,268.675934 230.261154,269.433502 
	C230.490036,269.651825 230.747223,269.829102 231.043182,269.944397 
	C231.043182,269.944397 231.066422,269.941437 231.112320,270.780762 
	C231.228714,271.614929 231.345123,272.449066 231.449677,274.184509 
	C231.353088,282.469727 231.256516,290.754913 230.415054,299.102631 
	C229.291382,299.577789 228.167725,300.052948 226.170639,300.514862 
	C224.426132,300.414062 222.681610,300.313263 220.723328,299.745392 
	C220.525299,299.471558 220.327271,299.197723 219.495575,298.651337 
	C216.590485,298.316772 213.688034,297.956940 210.779678,297.653625 
	C206.474121,297.204498 202.164352,296.795471 197.277649,296.125183 
	C196.491684,295.842987 195.705734,295.560760 194.447906,294.779541 
	C192.948975,294.243896 191.450043,293.708252 189.272247,292.992035 
	C187.214233,291.949646 185.156219,290.907257 182.657074,289.362579 
	C178.087906,286.582947 173.518723,283.803345 168.431595,280.724915 
	C167.735931,280.336060 167.040268,279.947205 166.135315,279.253113 
	C165.979446,279.062103 165.796524,278.902039 165.337540,278.599121 
	C165.337540,278.599121 165.050491,278.500092 165.222443,278.129242 
	C165.159805,277.746399 165.097153,277.363586 165.082184,276.971466 
	C165.082184,276.971466 165.086823,276.922455 164.719101,276.367798 
	C160.538147,271.900269 156.357193,267.432739 151.875000,262.465027 
	C151.551025,261.981323 151.227051,261.497589 150.646851,260.384216 
	C141.831436,246.164093 136.531509,230.987762 135.665909,214.016693 
	C134.650848,194.115341 139.747879,176.116165 150.741577,159.930984 
	C155.904205,152.330444 162.869415,145.954315 169.597000,138.677963 
	C173.080719,136.147781 176.564453,133.617584 180.786682,131.058228 
	C182.535583,130.370163 184.284500,129.682114 185.981567,128.966064 
	C185.981567,128.966064 185.977310,129.024826 186.676666,128.974594 
	C187.872955,128.284271 189.069244,127.593941 190.511185,126.887230 
	C190.511185,126.887230 190.750504,126.829468 191.535583,126.875610 
	C193.162796,126.238335 194.790009,125.601059 196.591217,125.008278 
	C196.591217,125.008278 196.770004,124.991241 197.463928,125.002350 
	C198.313416,124.338051 199.162903,123.673759 200.848145,122.966026 
	C204.587814,122.028236 208.327499,121.090446 212.789139,120.064697 
	C214.205002,120.291328 215.620865,120.517952 217.949539,120.853065 
	C225.568939,120.512863 233.188354,120.172661 241.722412,119.876389 
	C250.725754,119.940056 251.008865,119.677063 251.001373,110.752304 
	C250.986191,92.670975 251.024445,74.588936 250.842377,56.509186 
	C250.817352,54.024548 249.659729,51.551311 248.081467,49.021145 
	C242.607147,49.005558 237.128998,48.857471 231.659683,49.015282 
	C227.082733,49.147339 222.516068,49.636944 217.040771,49.987793 
	C207.684418,51.296940 198.328049,52.606091 188.172256,53.981880 
	C176.323807,58.188316 164.191406,61.746365 152.704056,66.777298 
	C140.374268,72.177185 129.373428,80.010529 119.264679,89.017525 
	C117.948807,90.189972 115.684540,90.298019 113.919434,89.981461 
	C113.883621,84.051865 113.847809,78.122276 113.868477,71.328644 
	C113.860298,70.174904 113.852119,69.021172 113.907822,66.979324 
	C113.949310,62.238037 113.990799,57.496746 114.041039,52.371239 
	C114.041039,52.371239 114.024475,51.987282 114.450638,51.669750 
	C114.308777,51.097229 114.166924,50.524708 113.993668,49.994049 
	C113.993668,49.994049 114.044533,49.981869 113.383003,49.457130 
	C112.403000,49.311436 111.423088,49.039322 110.442986,49.038662 
	C89.854584,49.024784 69.266106,49.026524 48.677814,49.084278 
	C47.217762,49.088371 45.758987,49.548618 44.264847,50.684578 
	C44.349327,51.573109 44.433807,52.461639 44.357460,53.726784 
	C44.357460,53.726784 44.160015,54.085552 43.996532,54.271145 
	C43.887753,54.516800 43.923946,54.742798 44.244827,55.745209 
	C44.302677,65.033051 44.298843,74.321770 44.431671,83.608536 
	C44.681534,101.078369 45.206509,118.546654 45.245251,136.016403 
	C45.277298,150.468781 44.509987,164.923401 44.567539,179.375137 
	C44.662216,203.148102 45.149380,226.919418 45.434803,250.691849 
	C45.464729,253.184219 45.196117,255.678726 45.160347,258.173615 
	C45.036644,266.801788 44.845161,275.431061 44.884514,284.058990 
	C44.933731,294.850830 45.296726,305.641449 45.324791,316.433105 
	C45.369316,333.552917 45.248493,350.673187 45.251068,368.356689 
	C45.296219,368.538727 45.341370,368.720795 46.063850,369.283112 
	C47.035156,369.473267 48.005798,369.825623 48.977875,369.829651 
	C69.059395,369.912537 89.141090,369.976532 109.222664,369.955902 
	C110.441559,369.954620 111.659698,369.218811 113.192764,368.381744 
	C113.360008,367.694794 113.527252,367.007874 113.740639,365.411346 
	C113.744370,364.197296 113.748108,362.983215 113.834946,360.876404 
	C113.947899,349.929321 114.060860,338.982239 114.720291,327.957245 
	C116.087738,328.468811 117.739220,328.649811 118.778748,329.543030 
	C129.338913,338.616486 140.150162,347.342651 153.135239,352.754944 
	C161.008392,356.036530 169.090042,358.817902 177.801651,361.989716 
	C186.553055,364.260193 195.304459,366.530670 204.901810,368.882172 
	C208.589752,368.941986 212.277695,369.001801 216.631378,369.574768 
	C226.072525,369.676819 235.513672,369.778839 245.772247,369.929718 
	C249.707855,370.259277 250.981339,368.033447 250.928314,364.547180 
	C250.858902,359.985046 250.780899,355.423035 250.253433,350.330963 
	C248.188477,349.906769 246.131912,349.169037 244.057083,349.113495 
	C235.736801,348.890869 227.410873,348.879700 218.668335,348.473236 
	C217.469009,348.334503 216.269699,348.195740 214.188660,347.984161 
	C208.160614,347.265442 202.132584,346.546722 195.566147,345.311340 
	C194.075058,345.246918 192.583969,345.182526 190.302444,344.994385 
	C186.475845,344.142548 182.649261,343.290680 178.194092,342.350311 
	C177.782272,342.255066 177.370468,342.159821 176.530365,341.550629 
	C175.296967,341.194122 174.063583,340.837616 172.261536,340.370026 
	C172.073898,340.324280 171.886246,340.278564 171.378433,339.647186 
	C169.564346,338.798676 167.750244,337.950165 165.992081,337.034119 
	C165.992081,337.034119 165.930542,337.090210 165.490509,336.623199 
	C164.338867,336.079926 163.187225,335.536652 161.668411,334.410919 
	C152.073044,327.630005 142.477676,320.849121 132.715103,313.596588 
	C132.535217,313.303070 132.287491,313.087555 131.984161,313.021820 
	C131.984161,313.021820 132.055893,313.009613 131.764359,312.433472 
	C130.513397,311.268646 129.262451,310.103790 127.997993,309.002197 
	C127.997993,309.002197 128.062653,309.003235 127.876015,308.506439 
	C127.584343,308.321594 127.292671,308.136749 126.983391,308.010101 
	C126.983391,308.010101 127.044121,308.006561 126.800385,307.559601 
	C126.531372,307.358398 126.262352,307.157227 125.990562,307.016632 
	C125.990562,307.016632 126.048203,306.997803 125.870865,306.500427 
z"/>
<path fill="#0C1760" opacity="1.000000" stroke="none" 
	d="
M180.048172,131.087402 
	C176.564453,133.617584 173.080719,136.147781 168.950134,138.894669 
	C163.362610,143.368378 157.664612,147.007599 153.605545,151.983704 
	C129.234329,181.861084 126.261726,223.413239 145.806381,256.628448 
	C146.882278,258.456848 149.176147,259.568573 150.903076,261.013885 
	C151.227051,261.497589 151.551025,261.981323 151.938034,263.008057 
	C152.578018,265.355133 152.666412,267.608673 153.829834,268.873108 
	C156.567764,271.848877 159.818771,274.352509 163.018768,277.297424 
	C163.555954,277.996765 163.936569,278.445892 164.556152,279.007935 
	C165.311630,279.266693 165.828110,279.412506 166.344604,279.558319 
	C167.040268,279.947205 167.735931,280.336060 168.797775,281.198059 
	C172.542618,286.555573 177.460068,288.823059 183.098206,289.864868 
	C185.156219,290.907257 187.214233,291.949646 189.794617,293.310089 
	C191.851257,294.178284 193.385513,294.728394 194.919785,295.278534 
	C195.705734,295.560760 196.491684,295.842987 197.788956,296.505890 
	C205.549210,298.095856 212.798141,299.305145 220.272736,300.448151 
	C220.498367,300.381897 220.937103,300.212433 220.937103,300.212433 
	C222.681610,300.313263 224.426132,300.414062 226.878220,300.600342 
	C228.777176,300.137268 229.968552,299.588715 231.159943,299.040131 
	C231.256516,290.754913 231.353088,282.469727 231.613419,273.539490 
	C231.540237,271.910126 231.303329,270.925781 231.066422,269.941437 
	C231.066422,269.941437 231.043182,269.944397 230.880890,269.780090 
	C230.487183,269.401581 230.230270,269.224243 229.947876,269.083832 
	C223.625702,268.675934 217.303528,268.268036 210.378876,267.533142 
	C208.724670,266.439362 207.781082,265.360321 206.604874,264.952942 
	C190.500519,259.375519 179.760620,248.030655 172.055405,233.283707 
	C171.178711,231.605820 169.518234,230.337448 168.221191,228.879196 
	C167.482758,225.538971 166.744308,222.198761 166.017365,218.211441 
	C165.727188,216.687225 165.425507,215.810089 165.123825,214.932968 
	C165.123825,214.932968 165.071030,214.954407 165.111710,214.754883 
	C165.152390,214.555374 165.159515,214.198181 165.159515,214.198181 
	C165.200302,213.977539 165.241104,213.756897 165.434326,212.839996 
	C166.307739,206.683105 167.028717,201.222488 167.749695,195.761871 
	C167.707520,195.107971 167.665344,194.454056 167.794327,193.161880 
	C168.243439,191.613251 168.521393,190.702881 168.799347,189.792526 
	C169.474701,188.090622 170.150070,186.388702 171.313232,184.251648 
	C172.907562,181.586182 174.014099,179.355865 175.120636,177.125565 
	C175.120636,177.125565 175.156525,177.101471 175.469360,176.964355 
	C177.442841,174.200272 179.103470,171.573303 180.764099,168.946350 
	C183.645065,166.408768 186.526031,163.871185 189.998413,161.210526 
	C195.399887,158.790009 200.209961,156.492569 205.415970,154.123627 
	C208.393341,153.357452 210.974762,152.662750 213.672546,151.895630 
	C213.977951,151.730621 214.176712,151.682983 214.909012,151.706360 
	C224.391068,151.695114 233.361740,151.354858 242.303329,151.722122 
	C248.766998,151.987610 249.381744,153.731384 248.969315,162.147064 
	C248.695297,167.738098 245.314407,167.603958 241.136948,167.823639 
	C231.413925,168.334930 221.719635,169.392456 211.658768,170.299698 
	C190.909515,176.264771 178.242249,199.606155 184.517731,220.365463 
	C185.867966,224.832001 188.637314,228.869522 190.913025,233.390076 
	C192.268753,234.854019 193.464386,236.032562 194.660019,237.211105 
	C195.594437,238.040176 196.528854,238.869247 197.802322,240.242798 
	C204.426208,248.216080 212.986603,250.493484 222.142731,251.002594 
	C228.271423,251.343353 234.434387,251.057678 240.582001,251.070572 
	C248.051102,251.086227 248.967987,251.868881 249.010025,259.322968 
	C249.095276,274.442566 249.059982,289.563049 249.023743,304.683044 
	C248.992783,317.602692 248.803726,317.691681 235.522430,317.994965 
	C229.574036,318.130768 223.632919,318.584503 217.584259,318.901794 
	C217.480011,318.909607 217.271103,318.917419 217.271103,318.917419 
	C217.089798,318.861786 216.908478,318.806122 216.164307,318.466675 
	C207.383026,316.732697 199.164551,315.282532 190.946075,313.832397 
	C189.220154,313.213837 187.494232,312.595276 185.267410,311.601196 
	C183.771393,310.377686 182.900162,309.276672 181.762573,308.719604 
	C164.634430,300.332245 149.683350,289.227966 137.814713,273.706543 
	C129.028244,260.752777 122.429367,247.182877 118.978516,232.161591 
	C118.403931,229.660446 117.129158,227.320160 116.177948,224.905533 
	C116.177940,224.905533 116.140083,224.928040 116.161163,224.711197 
	C116.182251,224.494354 116.166039,224.101440 116.166039,224.101440 
	C116.198174,223.636185 116.230316,223.170944 116.366661,222.072998 
	C116.605644,220.644669 116.740417,219.849030 116.937119,218.722137 
	C116.503433,216.221802 116.007835,214.052734 115.512238,211.883652 
	C115.481300,211.183594 115.450371,210.483536 115.623016,209.129562 
	C116.177711,202.977554 116.528831,197.479446 116.879959,191.981354 
	C117.924515,187.579330 118.969055,183.177307 120.348541,178.176331 
	C122.814529,172.089706 124.945572,166.602020 127.076614,161.114349 
	C127.076614,161.114349 127.091866,161.075882 127.397751,160.904465 
	C130.841354,155.234344 133.979080,149.735626 137.116791,144.236923 
	C137.889526,143.252380 138.662247,142.267838 140.015442,141.009995 
	C144.120117,136.885910 147.644302,133.035141 151.168503,129.184372 
	C152.007263,128.303909 152.846024,127.423454 154.290100,126.316788 
	C159.360428,125.932457 161.411560,122.799980 163.203384,119.347992 
	C163.458252,119.127357 163.713104,118.906731 164.489639,118.473640 
	C166.335999,117.817383 167.660675,117.373581 169.292542,116.778877 
	C175.479080,113.982201 181.234848,111.000977 187.269882,108.777794 
	C194.391922,106.154175 201.755508,104.186211 209.377289,101.971771 
	C215.848190,101.730232 221.967194,101.587212 228.058044,101.095497 
	C230.108337,100.929977 233.334152,100.814888 231.139160,96.573181 
	C231.144333,93.323051 231.181122,90.533661 231.423676,87.476067 
	C231.575928,82.395721 231.522430,77.583565 231.468948,72.771416 
	C231.397949,72.377861 231.326965,71.984314 231.292511,71.074280 
	C230.150742,69.668991 229.039749,68.149010 227.780960,68.014748 
	C224.554153,67.670601 221.261688,67.942284 217.703918,67.913780 
	C207.518326,69.770515 197.624298,71.681213 187.571777,73.637527 
	C187.413284,73.683159 187.093750,73.771896 186.705368,73.770401 
	C185.542801,73.829071 184.768631,73.889236 183.679703,74.024902 
	C182.222443,74.663239 181.079941,75.226067 179.575592,75.820053 
	C178.490662,75.917191 177.767578,75.983154 176.654175,76.091217 
	C174.809097,76.459351 173.162781,76.452988 171.929642,77.163620 
	C161.304764,83.286476 150.630127,89.340561 140.246597,95.855453 
	C136.406418,98.264885 133.303162,101.848839 129.560608,105.049988 
	C125.024796,109.475288 120.636230,113.607658 116.622963,118.077042 
	C114.497345,120.444252 113.024063,123.397224 111.256279,126.085754 
	C109.295799,129.611206 107.413620,133.183304 105.349449,136.646973 
	C103.767120,139.302109 101.955124,141.820389 99.810486,144.799896 
	C94.560844,146.287888 96.097122,142.389572 96.083061,140.500458 
	C95.930725,120.043373 96.061508,99.584068 95.881119,79.127426 
	C95.851234,75.738304 94.696815,72.359093 94.046753,68.976685 
	C94.031425,68.978058 94.003242,68.976761 93.857407,68.796936 
	C93.503685,68.387344 93.274780,68.180878 92.554993,67.977081 
	C90.101715,67.947792 88.114677,67.857544 86.135521,67.945198 
	C79.081810,68.257591 72.030785,68.630478 64.906326,69.047089 
	C64.833916,69.113716 64.696449,69.254555 64.583328,69.382080 
	C64.321556,69.681686 64.167374,69.848648 63.749573,70.281708 
	C62.981438,73.769821 62.015816,76.988602 62.029064,80.203339 
	C62.259109,136.000977 62.649693,191.797913 62.914291,247.595444 
	C63.025558,271.058807 63.000656,294.523590 62.879612,317.986908 
	C62.840141,325.637817 62.129936,333.285248 62.091846,340.936127 
	C62.080288,343.258820 63.292820,345.587616 63.976875,348.261139 
	C64.047310,349.072418 64.085564,349.536163 64.491409,350.162231 
	C74.536720,350.205048 84.214439,350.085571 93.890625,349.734985 
	C93.889099,349.503876 93.882645,349.041687 93.882645,349.041687 
	C93.882645,349.041687 93.919907,348.947754 94.226547,348.750916 
	C95.096107,347.088562 96.149330,345.622833 96.148827,344.157501 
	C96.140503,319.971832 95.999641,295.786224 96.233414,271.687897 
	C97.255180,271.939667 97.932030,272.104156 98.608871,272.268616 
	C98.608871,272.268616 98.679588,272.297760 98.795738,272.653381 
	C100.878876,275.730865 102.845863,278.452698 104.812851,281.174530 
	C105.510933,282.856232 106.209007,284.537903 107.087616,286.902008 
	C110.863480,292.054108 114.458809,296.523804 118.034454,301.008179 
	C118.014763,301.022858 118.006844,300.972137 118.148674,301.163208 
	C118.499062,301.596924 118.739548,301.802094 119.021660,301.966064 
	C119.031357,301.962311 119.038239,301.982483 119.095528,302.230316 
	C119.926315,302.990692 120.699814,303.503235 121.735130,304.037354 
	C122.344742,304.031525 122.692543,304.004028 123.040344,303.976562 
	C123.040344,303.976562 122.997368,303.999695 122.959396,304.266327 
	C122.924393,304.919769 122.927376,305.306549 122.843735,305.948334 
	C123.497559,307.688965 123.899460,309.537659 125.036522,310.597992 
	C130.197678,315.410858 135.169373,320.587646 140.968124,324.512177 
	C147.142731,328.691101 154.170685,331.609131 161.070908,335.330078 
	C162.854034,336.085052 164.392288,336.587616 165.930542,337.090210 
	C165.930542,337.090210 165.992081,337.034119 166.166260,337.329468 
	C168.126495,338.494110 169.912552,339.363464 171.698593,340.232819 
	C171.886246,340.278564 172.073898,340.324280 172.796494,340.615997 
	C174.540512,341.262817 175.749588,341.663696 176.958649,342.064545 
	C177.370468,342.159821 177.782272,342.255066 178.756119,342.619385 
	C183.228989,343.925934 187.139832,344.963470 191.022034,346.007477 
	C190.993378,346.013977 190.965134,345.962524 191.263184,346.180481 
	C194.052994,346.925079 196.544724,347.451721 199.006195,347.967285 
	C198.975906,347.956207 199.004807,347.898651 199.319550,348.094421 
	C206.424545,349.187408 213.214783,350.084595 220.473083,351.000946 
	C228.200195,351.056183 235.459244,351.113739 242.718323,351.120178 
	C246.975922,351.123932 249.159134,353.066895 249.043015,357.453400 
	C248.951355,360.915863 248.995605,364.381866 248.512085,367.862488 
	C236.353821,367.620087 224.663452,367.236725 212.971741,367.189636 
	C210.001999,367.177673 207.027954,368.235077 204.055878,368.801147 
	C195.304459,366.530670 186.553055,364.260193 177.232056,361.645142 
	C175.094513,360.402893 173.571548,359.413055 171.951248,358.622742 
	C162.342972,353.936035 152.316833,349.950287 143.204590,344.447998 
	C134.772568,339.356537 127.192993,332.804413 119.486229,326.587799 
	C116.840851,324.453918 114.755440,323.751495 112.091476,326.539001 
	C111.877281,340.672272 111.689034,354.346313 111.496979,368.014404 
	C111.493179,368.008423 111.498840,367.997345 110.984283,367.990753 
	C88.712364,367.920532 66.954994,367.856903 45.197624,367.793274 
	C45.248493,350.673187 45.369316,333.552917 45.324791,316.433105 
	C45.296726,305.641449 44.933731,294.850830 44.884514,284.058990 
	C44.845161,275.431061 45.036644,266.801788 45.160347,258.173615 
	C45.196117,255.678726 45.464729,253.184219 45.434803,250.691849 
	C45.149380,226.919418 44.662216,203.148102 44.567539,179.375137 
	C44.509987,164.923401 45.277298,150.468781 45.245251,136.016403 
	C45.206509,118.546654 44.681534,101.078369 44.431671,83.608536 
	C44.298843,74.321770 44.302677,65.033051 44.197704,55.131882 
	C44.150581,54.518559 44.160015,54.085552 44.160015,54.085552 
	C44.160015,54.085552 44.357460,53.726784 44.674065,53.383419 
	C45.680214,52.385941 46.369751,51.731827 47.521614,51.075401 
	C54.657082,51.065376 61.330227,51.057659 68.440292,51.054703 
	C70.915970,51.064701 72.954720,51.069935 75.385788,51.194557 
	C80.744232,51.413342 85.711098,51.616795 90.676231,51.580669 
	C94.990669,51.549282 99.302849,51.104637 103.616531,51.096149 
	C110.904427,51.081802 111.891411,52.104656 111.950233,59.522175 
	C112.025352,68.994789 111.831787,78.473236 112.125168,87.937660 
	C112.192871,90.121414 113.767860,92.258453 114.649231,94.416992 
	C116.447388,93.453636 118.522018,92.799736 120.000618,91.478699 
	C133.645218,79.288086 149.198196,70.267097 166.125183,63.547455 
	C173.684143,60.546703 181.374451,57.876820 189.416595,55.019295 
	C207.033340,53.676342 224.228210,52.199291 241.449173,51.151104 
	C248.197113,50.740379 248.961655,51.845619 248.985397,58.505600 
	C249.039322,73.639397 249.034378,88.773415 249.041626,103.907341 
	C249.048340,117.899353 249.039825,117.787941 235.214066,118.004883 
	C229.132156,118.100311 223.058975,118.753563 216.995499,119.418060 
	C217.018341,120.036575 217.027542,120.390579 217.036728,120.744583 
	C215.620865,120.517952 214.205002,120.291328 212.086288,120.015747 
	C206.874908,120.918678 202.366394,121.870567 197.510010,122.846161 
	C195.431854,123.730263 193.701553,124.590675 191.820770,125.617584 
	C191.363678,126.132545 191.057098,126.481010 190.750504,126.829468 
	C190.750504,126.829468 190.511185,126.887230 190.027145,126.944351 
	C188.354507,127.675919 187.165909,128.350372 185.977310,129.024826 
	C185.977310,129.024826 185.981567,128.966064 185.635773,128.989029 
	C183.542725,129.703796 181.795441,130.395599 180.048172,131.087402 
z"/>
<path fill="#05073B" opacity="1.000000" stroke="none" 
	d="
M150.774963,260.699036 
	C149.176147,259.568573 146.882278,258.456848 145.806381,256.628448 
	C126.261726,223.413239 129.234329,181.861084 153.605545,151.983704 
	C157.664612,147.007599 163.362610,143.368378 168.660492,139.067352 
	C162.869415,145.954315 155.904205,152.330444 150.741577,159.930984 
	C139.747879,176.116165 134.650848,194.115341 135.665909,214.016693 
	C136.531509,230.987762 141.831436,246.164093 150.774963,260.699036 
z"/>
<path fill="#090B3D" opacity="1.000000" stroke="none" 
	d="
M189.005157,55.056770 
	C181.374451,57.876820 173.684143,60.546703 166.125183,63.547455 
	C149.198196,70.267097 133.645218,79.288086 120.000618,91.478699 
	C118.522018,92.799736 116.447388,93.453636 114.649231,94.416992 
	C113.767860,92.258453 112.192871,90.121414 112.125168,87.937660 
	C111.831787,78.473236 112.025352,68.994789 111.950233,59.522175 
	C111.891411,52.104656 110.904427,51.081802 103.616531,51.096149 
	C99.302849,51.104637 94.990669,51.549282 90.676231,51.580669 
	C85.711098,51.616795 80.744232,51.413342 75.381012,50.942162 
	C74.979149,50.402565 74.974388,50.234741 75.439163,50.031998 
	C88.620636,49.992008 101.332581,49.986938 114.044533,49.981869 
	C114.044533,49.981869 113.993668,49.994049 113.974594,50.311455 
	C113.978508,51.081669 114.001488,51.534477 114.024475,51.987282 
	C114.024475,51.987282 114.041039,52.371239 113.917496,52.979294 
	C113.810616,58.347374 113.827278,63.107403 113.843941,67.867432 
	C113.852119,69.021172 113.860298,70.174904 113.734978,72.136688 
	C113.687508,78.929512 113.773537,84.914299 113.859573,90.899094 
	C115.684540,90.298019 117.948807,90.189972 119.264679,89.017525 
	C129.373428,80.010529 140.374268,72.177185 152.704056,66.777298 
	C164.191406,61.746365 176.323807,58.188316 188.580597,54.234062 
	C188.994339,54.676418 188.999741,54.866596 189.005157,55.056770 
z"/>
<path fill="#030438" opacity="1.000000" stroke="none" 
	d="
M189.416595,55.019295 
	C188.999741,54.866596 188.994339,54.676418 188.980316,54.200745 
	C198.328049,52.606091 207.684418,51.296940 217.965302,49.996979 
	C228.935364,49.695042 238.980927,49.383915 249.026474,49.072792 
	C249.659729,51.551311 250.817352,54.024548 250.842377,56.509186 
	C251.024445,74.588936 250.986191,92.670975 251.001373,110.752304 
	C251.008865,119.677063 250.725754,119.940056 240.890503,119.721336 
	C232.366333,119.428703 224.674088,119.291122 216.981842,119.153542 
	C223.058975,118.753563 229.132156,118.100311 235.214066,118.004883 
	C249.039825,117.787941 249.048340,117.899353 249.041626,103.907341 
	C249.034378,88.773415 249.039322,73.639397 248.985397,58.505600 
	C248.961655,51.845619 248.197113,50.740379 241.449173,51.151104 
	C224.228210,52.199291 207.033340,53.676342 189.416595,55.019295 
z"/>
<path fill="#030439" opacity="1.000000" stroke="none" 
	d="
M217.688492,318.893951 
	C223.632919,318.584503 229.574036,318.130768 235.522430,317.994965 
	C248.803726,317.691681 248.992783,317.602692 249.023743,304.683044 
	C249.059982,289.563049 249.095276,274.442566 249.010025,259.322968 
	C248.967987,251.868881 248.051102,251.086227 240.582001,251.070572 
	C234.434387,251.057678 228.271423,251.343353 222.142731,251.002594 
	C212.986603,250.493484 204.426208,248.216080 197.998749,240.487396 
	C199.425507,241.013367 200.935822,241.988129 202.574982,242.637939 
	C208.121689,244.836853 213.714035,246.920624 220.083008,249.229462 
	C230.454178,249.610794 240.031296,249.811066 249.608414,250.011322 
	C250.045273,251.752426 250.853592,253.491714 250.862106,255.234909 
	C250.957581,274.781433 250.946442,294.328583 250.901749,313.875427 
	C250.898422,315.333710 250.417252,316.790863 249.520050,318.656372 
	C238.484085,319.007446 228.086288,318.950714 217.688492,318.893951 
z"/>
<path fill="#2B3059" opacity="1.000000" stroke="none" 
	d="
M64.007652,70.010490 
	C64.167374,69.848648 64.321556,69.681686 64.678452,69.603851 
	C64.886696,69.698090 65.073944,70.145493 65.073944,70.145493 
	C65.041039,145.938187 65.008675,221.730896 64.972511,297.523590 
	C64.971474,299.688873 64.930130,301.854126 64.714371,304.479370 
	C64.521156,304.939301 64.217247,304.935089 64.188293,304.472107 
	C64.127663,301.681091 64.068939,299.353058 64.068207,297.024994 
	C64.044579,221.353485 64.026535,145.681992 64.007652,70.010490 
z"/>
<path fill="#0B0D3C" opacity="1.000000" stroke="none" 
	d="
M112.117416,326.079742 
	C114.755440,323.751495 116.840851,324.453918 119.486229,326.587799 
	C127.192993,332.804413 134.772568,339.356537 143.204590,344.447998 
	C152.316833,349.950287 162.342972,353.936035 171.951248,358.622742 
	C173.571548,359.413055 175.094513,360.402893 176.870239,361.562286 
	C169.090042,358.817902 161.008392,356.036530 153.135239,352.754944 
	C140.150162,347.342651 129.338913,338.616486 118.778748,329.543030 
	C117.739220,328.649811 116.087738,328.468811 114.159439,327.989838 
	C113.407150,328.019165 113.215714,328.015869 112.918259,327.766296 
	C112.580627,327.039917 112.349022,326.559845 112.117416,326.079742 
z"/>
<path fill="#050C4B" opacity="1.000000" stroke="none" 
	d="
M94.062073,68.975304 
	C94.696815,72.359093 95.851234,75.738304 95.881119,79.127426 
	C96.061508,99.584068 95.930725,120.043373 96.083061,140.500458 
	C96.097122,142.389572 94.560844,146.287888 99.629227,145.098236 
	C98.677048,147.501495 97.471359,150.006775 95.748215,152.544006 
	C94.811806,150.686920 94.077522,148.805893 94.029320,146.907455 
	C93.835991,139.292526 93.855286,131.672180 93.831146,123.582932 
	C93.883575,110.307358 93.966904,97.502274 93.882080,84.698288 
	C93.852516,80.236618 93.407646,75.777702 93.152451,71.317528 
	C93.100296,71.108727 93.048141,70.899925 93.132050,70.200409 
	C93.532768,69.464890 93.797424,69.220100 94.062073,68.975304 
z"/>
<path fill="#040736" opacity="1.000000" stroke="none" 
	d="
M190.752945,233.104675 
	C188.637314,228.869522 185.867966,224.832001 184.517731,220.365463 
	C178.242249,199.606155 190.909515,176.264771 211.665344,170.612625 
	C212.037994,171.275314 212.049133,171.696136 212.060257,172.116943 
	C188.711319,180.029892 177.229019,208.802628 191.686066,232.655289 
	C191.210388,233.058044 190.981659,233.081360 190.752945,233.104675 
z"/>
<path fill="#03084B" opacity="1.000000" stroke="none" 
	d="
M95.888481,271.600586 
	C95.999641,295.786224 96.140503,319.971832 96.148827,344.157501 
	C96.149330,345.622833 95.096107,347.088562 94.265320,348.718506 
	C93.688110,341.158264 93.378769,333.433624 93.224564,324.873108 
	C93.580460,312.983948 93.867714,301.931183 93.932419,290.877045 
	C93.953468,287.281097 93.393166,283.681763 93.098763,280.083954 
	C93.267632,276.842499 93.436501,273.601013 93.863213,270.243652 
	C94.710190,270.618683 95.299332,271.109650 95.888481,271.600586 
z"/>
<path fill="#020435" opacity="1.000000" stroke="none" 
	d="
M212.442657,172.016083 
	C212.049133,171.696136 212.037994,171.275314 212.020294,170.541580 
	C221.719635,169.392456 231.413925,168.334930 241.136948,167.823639 
	C245.314407,167.603958 248.695297,167.738098 248.969315,162.147064 
	C249.381744,153.731384 248.766998,151.987610 242.303329,151.722122 
	C233.361740,151.354858 224.391068,151.695114 215.419846,151.506821 
	C217.342957,150.865463 219.274216,150.118484 221.216034,150.089966 
	C230.709427,149.950378 240.205643,150.002426 249.700851,149.986710 
	C250.006470,155.567932 250.630127,161.164703 250.359039,166.717758 
	C250.302368,167.878632 246.999924,169.671738 245.097260,169.805161 
	C239.129562,170.223633 233.102951,169.751892 227.124451,170.082443 
	C222.338837,170.347092 217.590149,171.279297 212.442657,172.016083 
z"/>
<path fill="#090B40" opacity="1.000000" stroke="none" 
	d="
M129.863815,104.897125 
	C133.303162,101.848839 136.406418,98.264885 140.246597,95.855453 
	C150.630127,89.340561 161.304764,83.286476 171.929642,77.163620 
	C173.162781,76.452988 174.809097,76.459351 176.784882,76.349823 
	C177.575546,77.082573 177.845230,77.598801 178.114899,78.115028 
	C162.841064,84.817101 147.533875,91.457092 135.171310,103.162025 
	C134.470398,103.825645 133.484436,104.188202 131.971924,104.833817 
	C130.829742,104.950211 130.346771,104.923676 129.863815,104.897125 
z"/>
<path fill="#0B0D3C" opacity="1.000000" stroke="none" 
	d="
M138.023361,273.968658 
	C149.683350,289.227966 164.634430,300.332245 181.762573,308.719604 
	C182.900162,309.276672 183.771393,310.377686 184.929840,311.519165 
	C175.144775,310.012543 167.032150,304.308685 159.436340,298.363556 
	C151.706635,292.313629 145.090179,284.837555 138.039841,277.931274 
	C137.516037,277.418182 137.423813,276.464447 137.250717,275.189758 
	C137.589279,274.433289 137.806915,274.201538 138.023361,273.968658 
z"/>
<path fill="#080A3A" opacity="1.000000" stroke="none" 
	d="
M168.221222,229.264160 
	C169.518234,230.337448 171.178711,231.605820 172.055405,233.283707 
	C179.760620,248.030655 190.500519,259.375519 206.604874,264.952942 
	C207.781082,265.360321 208.724670,266.439362 209.943878,267.495911 
	C204.561722,265.739838 198.597565,264.412842 193.547363,261.500854 
	C182.490997,255.125610 175.095306,245.127167 169.237366,233.981033 
	C168.569427,232.710098 168.544403,231.101257 168.221222,229.264160 
z"/>
<path fill="#090E3F" opacity="1.000000" stroke="none" 
	d="
M160.826050,335.077667 
	C154.170685,331.609131 147.142731,328.691101 140.968124,324.512177 
	C135.169373,320.587646 130.197678,315.410858 125.036522,310.597992 
	C123.899460,309.537659 123.497559,307.688965 123.194702,306.035614 
	C124.107895,305.901520 124.583519,305.935120 125.059143,305.968689 
	C125.059143,305.968719 125.006653,305.995422 125.097275,306.212830 
	C125.474663,306.619446 125.761429,306.808624 126.048203,306.997803 
	C126.048203,306.997803 125.990562,307.016632 126.127815,307.198029 
	C126.524750,307.588470 126.784431,307.797516 127.044113,308.006561 
	C127.044121,308.006561 126.983391,308.010101 127.093330,308.223053 
	C127.489738,308.625092 127.776199,308.814148 128.062653,309.003235 
	C128.062653,309.003235 127.997993,309.002197 128.065536,309.304932 
	C129.440704,310.741608 130.748306,311.875610 132.055908,313.009613 
	C132.055893,313.009613 131.984161,313.021820 132.109344,313.187653 
	C132.423065,313.616577 132.638977,313.854828 132.882294,314.068237 
	C142.477676,320.849121 152.073044,327.630005 161.549561,334.723267 
	C161.229172,335.049622 161.027603,335.063660 160.826050,335.077667 
z"/>
<path fill="#030439" opacity="1.000000" stroke="none" 
	d="
M137.814713,273.706543 
	C137.806915,274.201538 137.589279,274.433289 137.205353,274.835510 
	C132.343063,267.336090 126.691643,260.070038 123.216339,251.880508 
	C119.721207,243.644241 118.391357,234.489105 116.145309,225.321075 
	C117.129158,227.320160 118.403931,229.660446 118.978516,232.161591 
	C122.429367,247.182877 129.028244,260.752777 137.814713,273.706543 
z"/>
<path fill="#05073B" opacity="1.000000" stroke="none" 
	d="
M209.014374,101.933990 
	C201.755508,104.186211 194.391922,106.154175 187.269882,108.777794 
	C181.234848,111.000977 175.479080,113.982201 169.281082,116.429688 
	C168.945694,115.764084 168.928955,115.296745 168.912201,114.829414 
	C181.076187,107.605293 193.998154,102.538193 208.588547,101.244232 
	C209.005096,101.454720 209.014374,101.933998 209.014374,101.933990 
z"/>
<path fill="#05073B" opacity="1.000000" stroke="none" 
	d="
M187.730270,73.591904 
	C197.624298,71.681213 207.518326,69.770515 217.918594,68.132454 
	C219.000122,68.985847 219.575424,69.566605 220.150711,70.147362 
	C209.684525,71.683235 199.218338,73.219109 188.298767,74.467758 
	C187.807007,73.984322 187.768631,73.788109 187.730270,73.591904 
z"/>
<path fill="#040736" opacity="1.000000" stroke="none" 
	d="
M129.560608,105.049988 
	C130.346771,104.923676 130.829742,104.950211 131.674500,104.995811 
	C125.296043,111.933762 118.555786,118.852638 111.535904,125.928635 
	C113.024063,123.397224 114.497345,120.444252 116.622963,118.077042 
	C120.636230,113.607658 125.024796,109.475288 129.560608,105.049988 
z"/>
<path fill="#020435" opacity="1.000000" stroke="none" 
	d="
M248.979523,367.846313 
	C248.995605,364.381866 248.951355,360.915863 249.043015,357.453400 
	C249.159134,353.066895 246.975922,351.123932 242.718323,351.120178 
	C235.459244,351.113739 228.200195,351.056183 220.473923,350.767517 
	C220.006714,350.514893 220.009399,350.047760 220.477219,350.048950 
	C230.865555,350.320435 240.786072,350.590698 250.706589,350.860962 
	C250.780899,355.423035 250.858902,359.985046 250.928314,364.547180 
	C250.981339,368.033447 249.707855,370.259277 245.359360,369.694061 
	C244.946472,369.458405 244.923981,369.036285 245.275482,368.988770 
	C246.744507,368.576294 247.862015,368.211334 248.979523,367.846313 
z"/>
<path fill="#24264D" opacity="1.000000" stroke="none" 
	d="
M64.217247,304.935089 
	C64.217247,304.935089 64.521156,304.939301 64.673080,304.943054 
	C64.907036,317.524872 65.208801,330.107208 64.964699,342.678894 
	C64.864777,347.824921 66.761009,349.320709 71.621994,349.108704 
	C78.726471,348.798767 85.854492,349.028595 93.427559,349.035034 
	C93.882645,349.041687 93.889099,349.503876 93.433800,349.736328 
	C83.360275,349.979126 73.742043,349.989532 64.123817,349.999908 
	C64.085564,349.536163 64.047310,349.072418 63.971977,347.801514 
	C64.029015,332.974609 64.123131,318.954834 64.217247,304.935089 
z"/>
<path fill="#2A2B56" opacity="1.000000" stroke="none" 
	d="
M113.713768,49.719498 
	C101.332581,49.986938 88.620636,49.992008 75.006439,50.013412 
	C72.082367,50.051014 70.060539,50.072281 67.568756,50.059532 
	C60.399387,50.015415 53.699974,50.005310 46.663498,49.954750 
	C45.650833,49.875114 44.975224,49.835938 44.299618,49.796761 
	C45.758987,49.548618 47.217762,49.088371 48.677814,49.084278 
	C69.266106,49.026524 89.854584,49.024784 110.442986,49.038662 
	C111.423088,49.039322 112.403000,49.311436 113.713768,49.719498 
z"/>
<path fill="#1E1E4C" opacity="1.000000" stroke="none" 
	d="
M111.498840,367.997314 
	C111.498840,367.997345 111.493179,368.008423 111.821671,368.194092 
	C112.375351,368.481476 112.600540,368.583221 112.834991,368.721344 
	C112.844246,368.757751 112.878181,368.824768 112.878181,368.824768 
	C111.659698,369.218811 110.441559,369.954620 109.222664,369.955902 
	C89.141090,369.976532 69.059395,369.912537 48.977875,369.829651 
	C48.005798,369.825623 47.035156,369.473267 46.155937,369.138367 
	C65.873138,368.987030 85.498383,369.010162 105.123199,368.931091 
	C107.249634,368.922546 109.373680,368.322815 111.498840,367.997314 
z"/>
<path fill="#00033F" opacity="1.000000" stroke="none" 
	d="
M110.984283,367.990723 
	C109.373680,368.322815 107.249634,368.922546 105.123199,368.931091 
	C85.498383,369.010162 65.873138,368.987030 45.817268,368.948242 
	C45.341370,368.720795 45.296219,368.538727 45.224346,368.074982 
	C66.954994,367.856903 88.712364,367.920532 110.984283,367.990723 
z"/>
<path fill="#020442" opacity="1.000000" stroke="none" 
	d="
M248.512100,367.862488 
	C247.862015,368.211334 246.744507,368.576294 244.814514,368.999634 
	C234.656570,369.059174 225.311111,369.060394 215.965637,369.061615 
	C212.277695,369.001801 208.589752,368.941986 204.478851,368.841675 
	C207.027954,368.235077 210.001999,367.177673 212.971741,367.189636 
	C224.663452,367.236725 236.353821,367.620087 248.512100,367.862488 
z"/>
<path fill="#030439" opacity="1.000000" stroke="none" 
	d="
M191.299896,313.958252 
	C199.164551,315.282532 207.383026,316.732697 215.890457,318.389587 
	C207.527390,319.683868 199.515457,317.292236 191.299896,313.958252 
z"/>
<path fill="#2A2B56" opacity="1.000000" stroke="none" 
	d="
M93.121201,71.759567 
	C93.407646,75.777702 93.852516,80.236618 93.882080,84.698288 
	C93.966904,97.502274 93.883575,110.307358 93.676140,123.576675 
	C93.485947,124.041344 93.174797,124.028137 93.174797,124.028137 
	C93.146515,106.752625 93.118233,89.477112 93.121201,71.759567 
z"/>
<path fill="#080A3A" opacity="1.000000" stroke="none" 
	d="
M162.862183,277.047180 
	C159.818771,274.352509 156.567764,271.848877 153.829834,268.873108 
	C152.666412,267.608673 152.578018,265.355133 152.088654,263.258148 
	C156.357193,267.432739 160.538147,271.900269 164.531815,276.667419 
	C163.850418,276.993744 163.356293,277.020477 162.862183,277.047180 
z"/>
<path fill="#030840" opacity="1.000000" stroke="none" 
	d="
M220.047089,300.514404 
	C212.798141,299.305145 205.549210,298.095856 198.078323,296.627991 
	C202.164352,296.795471 206.474121,297.204498 210.779678,297.653625 
	C213.688034,297.956940 216.590485,298.316772 219.791840,299.185211 
	C220.074432,299.984222 220.060760,300.249329 220.047089,300.514404 
z"/>
<path fill="#00033F" opacity="1.000000" stroke="none" 
	d="
M112.825737,368.684937 
	C112.600540,368.583221 112.375351,368.481476 111.825470,368.200073 
	C111.689034,354.346313 111.877281,340.672272 112.091476,326.539001 
	C112.349022,326.559845 112.580627,327.039917 112.919052,328.233643 
	C113.267860,339.887909 113.509850,350.828552 113.751846,361.769165 
	C113.748108,362.983215 113.744370,364.197296 113.606293,366.149719 
	C113.256546,367.487061 113.041145,368.085999 112.825737,368.684937 
z"/>
<path fill="#1F2156" opacity="1.000000" stroke="none" 
	d="
M93.061050,280.545654 
	C93.393166,283.681763 93.953468,287.281097 93.932419,290.877045 
	C93.867714,301.931183 93.580460,312.983948 93.239639,324.403381 
	C93.074158,310.182098 93.048752,295.594727 93.061050,280.545654 
z"/>
<path fill="#0C0E41" opacity="1.000000" stroke="none" 
	d="
M136.841675,144.412018 
	C133.979080,149.735626 130.841354,155.234344 127.417999,160.900177 
	C127.950539,154.242081 132.314102,149.446396 136.841675,144.412018 
z"/>
<path fill="#0C0E41" opacity="1.000000" stroke="none" 
	d="
M205.020035,154.195129 
	C200.209961,156.492569 195.399887,158.790009 190.286011,161.027710 
	C193.675110,156.424301 198.652191,154.242081 204.632080,153.428070 
	C205.013931,153.830933 205.016983,154.013031 205.020035,154.195129 
z"/>
<path fill="#030439" opacity="1.000000" stroke="none" 
	d="
M209.377289,101.971771 
	C209.014374,101.933998 209.005096,101.454720 209.001053,101.214951 
	C210.087921,100.653717 211.178833,100.332245 213.081390,99.996719 
	C217.966141,99.963623 222.069595,100.227325 226.098419,99.795265 
	C227.867569,99.605522 229.484650,97.997787 231.170792,97.033905 
	C233.334152,100.814888 230.108337,100.929977 228.058044,101.095497 
	C221.967194,101.587212 215.848190,101.730232 209.377289,101.971771 
z"/>
<path fill="#32315E" opacity="1.000000" stroke="none" 
	d="
M93.131096,124.493088 
	C93.174797,124.028137 93.485947,124.041344 93.640961,124.047592 
	C93.855286,131.672180 93.835991,139.292526 94.029320,146.907455 
	C94.077522,148.805893 94.811806,150.686920 95.524643,152.814453 
	C95.402992,154.771439 94.987457,156.489929 94.571915,158.208420 
	C94.077072,158.189285 93.582237,158.170151 93.087395,158.151016 
	C93.087395,147.086685 93.087395,136.022369 93.131096,124.493088 
z"/>
<path fill="#090E3F" opacity="1.000000" stroke="none" 
	d="
M118.054146,300.993500 
	C114.458809,296.523804 110.863480,292.054108 107.173080,287.236023 
	C110.555214,290.839050 114.032410,294.790436 117.775986,299.280823 
	C118.046295,300.211029 118.050224,300.602264 118.054146,300.993500 
z"/>
<path fill="#323558" opacity="1.000000" stroke="none" 
	d="
M249.367462,149.778931 
	C240.205643,150.002426 230.709427,149.950378 221.216034,150.089966 
	C219.274216,150.118484 217.342957,150.865463 214.895996,151.480804 
	C214.176712,151.682983 213.977951,151.730621 213.760468,151.824142 
	C213.732056,151.825058 213.794220,151.607147 213.794220,151.607147 
	C215.107605,150.728256 216.419891,149.092300 217.734558,149.090378 
	C228.167480,149.075317 238.600830,149.370941 249.367462,149.778931 
z"/>
<path fill="#0C0E41" opacity="1.000000" stroke="none" 
	d="
M126.780228,161.125031 
	C124.945572,166.602020 122.814529,172.089706 120.433067,177.799927 
	C121.533768,172.917297 122.821014,167.793320 124.311417,162.729126 
	C124.513000,162.044205 125.734573,161.659454 126.780228,161.125031 
z"/>
<path fill="#323558" opacity="1.000000" stroke="none" 
	d="
M231.139160,96.573181 
	C229.484650,97.997787 227.867569,99.605522 226.098419,99.795265 
	C222.069595,100.227325 217.966141,99.963623 213.422729,99.944763 
	C216.163452,99.621704 219.371017,99.147896 222.586151,99.089401 
	C229.988678,98.954750 229.937469,99.036240 229.997650,91.853271 
	C230.037567,87.087936 230.254974,82.324081 230.696747,77.672791 
	C231.073029,81.105431 231.145477,84.424843 231.217926,87.744263 
	C231.181122,90.533661 231.144333,93.323051 231.139160,96.573181 
z"/>
<path fill="#05073B" opacity="1.000000" stroke="none" 
	d="
M220.009399,350.047760 
	C220.009399,350.047760 220.006714,350.514893 220.005859,350.748352 
	C213.214783,350.084595 206.424545,349.187408 199.756546,348.093018 
	C204.942642,347.949554 210.006516,348.003265 215.070374,348.057007 
	C216.269699,348.195740 217.469009,348.334503 219.024689,348.845123 
	C219.590500,349.493927 219.799942,349.770844 220.009399,350.047760 
z"/>
<path fill="#26255E" opacity="1.000000" stroke="none" 
	d="
M216.995499,119.418060 
	C224.674088,119.291122 232.366333,119.428703 240.433167,119.699371 
	C233.188354,120.172661 225.568939,120.512863 217.493134,120.798828 
	C217.027542,120.390579 217.018341,120.036575 216.995499,119.418060 
z"/>
<path fill="#040945" opacity="1.000000" stroke="none" 
	d="
M116.632751,192.176636 
	C116.528831,197.479446 116.177711,202.977554 115.629143,208.779144 
	C115.749649,203.512390 116.067596,197.942139 116.632751,192.176636 
z"/>
<path fill="#040736" opacity="1.000000" stroke="none" 
	d="
M182.877640,289.613739 
	C177.460068,288.823059 172.542618,286.555573 169.056763,281.347473 
	C173.518723,283.803345 178.087906,286.582947 182.877640,289.613739 
z"/>
<path fill="#040736" opacity="1.000000" stroke="none" 
	d="
M150.844147,129.295929 
	C147.644302,133.035141 144.120117,136.885910 140.265518,140.819336 
	C143.463333,137.070465 146.991562,133.238968 150.844147,129.295929 
z"/>
<path fill="#16173D" opacity="1.000000" stroke="none" 
	d="
M113.793396,361.322784 
	C113.509850,350.828552 113.267860,339.887909 113.025070,328.479950 
	C113.215714,328.015869 113.407150,328.019165 113.886200,328.028809 
	C114.060860,338.982239 113.947899,349.929321 113.793396,361.322784 
z"/>
<path fill="#16173D" opacity="1.000000" stroke="none" 
	d="
M220.477219,350.048950 
	C219.799942,349.770844 219.590500,349.493927 219.234039,349.003662 
	C227.410873,348.879700 235.736801,348.890869 244.057083,349.113495 
	C246.131912,349.169037 248.188477,349.906769 250.480011,350.595947 
	C240.786072,350.590698 230.865555,350.320435 220.477219,350.048950 
z"/>
<path fill="#040736" opacity="1.000000" stroke="none" 
	d="
M96.233414,271.687897 
	C95.299332,271.109650 94.710190,270.618683 93.867058,269.937103 
	C93.847275,267.525879 94.081490,265.305267 94.315697,263.084686 
	C94.795593,262.978973 95.275482,262.873260 95.755379,262.767548 
	C96.694901,265.676270 97.634422,268.584961 98.591415,271.881165 
	C97.932030,272.104156 97.255180,271.939667 96.233414,271.687897 
z"/>
<path fill="#2A2B56" opacity="1.000000" stroke="none" 
	d="
M217.584259,318.901794 
	C228.086288,318.950714 238.484085,319.007446 249.331802,319.025879 
	C244.560333,319.323792 239.342056,319.859161 234.116669,319.941254 
	C228.686523,320.026550 223.249512,319.673584 217.543304,319.214844 
	C217.271103,318.917419 217.480011,318.909607 217.584259,318.901794 
z"/>
<path fill="#0B0D3C" opacity="1.000000" stroke="none" 
	d="
M167.465942,195.981720 
	C167.028717,201.222488 166.307739,206.683105 165.468323,212.505142 
	C163.367126,207.026413 163.904251,201.463318 167.465942,195.981720 
z"/>
<path fill="#1E1E4C" opacity="1.000000" stroke="none" 
	d="
M248.553970,49.046967 
	C238.980927,49.383915 228.935364,49.695042 218.417328,49.987194 
	C222.516068,49.636944 227.082733,49.147339 231.659683,49.015282 
	C237.128998,48.857471 242.607147,49.005558 248.553970,49.046967 
z"/>
<path fill="#020435" opacity="1.000000" stroke="none" 
	d="
M231.423676,87.476067 
	C231.145477,84.424843 231.073029,81.105431 230.943741,77.325691 
	C231.018570,75.770020 231.150238,74.674667 231.375427,73.175369 
	C231.522430,77.583565 231.575928,82.395721 231.423676,87.476067 
z"/>
<path fill="#1E1E4C" opacity="1.000000" stroke="none" 
	d="
M249.272980,249.832611 
	C240.031296,249.811066 230.454178,249.610794 220.496979,249.277786 
	C229.723801,249.314651 239.330673,249.484268 249.272980,249.832611 
z"/>
<path fill="#24264D" opacity="1.000000" stroke="none" 
	d="
M216.298508,369.318176 
	C225.311111,369.060394 234.656570,369.059174 244.463013,369.047119 
	C244.923981,369.036285 244.946472,369.458405 244.950653,369.669617 
	C235.513672,369.778839 226.072525,369.676819 216.298508,369.318176 
z"/>
<path fill="#080A3A" opacity="1.000000" stroke="none" 
	d="
M197.857864,122.822464 
	C202.366394,121.870567 206.874908,120.918678 211.725311,120.059723 
	C208.327499,121.090446 204.587814,122.028236 200.112762,123.011864 
	C198.954697,123.093765 198.532028,123.129829 198.046478,123.080032 
	C197.983612,122.994171 197.857864,122.822456 197.857864,122.822464 
z"/>
<path fill="#040736" opacity="1.000000" stroke="none" 
	d="
M162.848541,119.360626 
	C161.411560,122.799980 159.360428,125.932457 154.514374,126.110954 
	C156.920135,123.878639 159.706909,121.625946 162.848541,119.360626 
z"/>
<path fill="#1C1C42" opacity="1.000000" stroke="none" 
	d="
M94.046753,68.976685 
	C93.797424,69.220100 93.532768,69.464890 93.062828,69.885086 
	C83.905357,70.069008 74.953171,70.077530 65.537460,70.115768 
	C65.073944,70.145493 64.886696,69.698090 64.791573,69.476318 
	C64.696449,69.254555 64.833916,69.113716 65.377205,69.050575 
	C74.941925,68.981827 83.963348,68.976219 93.239380,68.974091 
	C93.663734,68.977303 93.833488,68.977028 94.003242,68.976761 
	C94.003242,68.976761 94.031425,68.978058 94.046753,68.976685 
z"/>
<path fill="#020435" opacity="1.000000" stroke="none" 
	d="
M220.584137,70.114059 
	C219.575424,69.566605 219.000122,68.985847 218.210144,68.186417 
	C221.261688,67.942284 224.554153,67.670601 227.780960,68.014748 
	C229.039749,68.149010 230.150742,69.668991 231.222992,70.782471 
	C227.750473,70.698341 224.384018,70.389549 220.584137,70.114059 
z"/>
<path fill="#323558" opacity="1.000000" stroke="none" 
	d="
M214.629517,348.020569 
	C210.006516,348.003265 204.942642,347.949554 199.441803,347.897247 
	C199.004807,347.898651 198.975906,347.956207 198.780411,347.765533 
	C197.654068,347.198029 196.723206,346.821198 195.870392,346.290283 
	C195.948425,346.136200 196.104538,345.828003 196.104538,345.828003 
	C202.132584,346.546722 208.160614,347.265442 214.629517,348.020569 
z"/>
<path fill="#05073B" opacity="1.000000" stroke="none" 
	d="
M180.505051,169.131836 
	C179.103470,171.573303 177.442841,174.200272 175.489807,176.957336 
	C176.880280,174.497406 178.563141,171.907364 180.505051,169.131836 
z"/>
<path fill="#040736" opacity="1.000000" stroke="none" 
	d="
M104.683929,280.852509 
	C102.845863,278.452698 100.878876,275.730865 98.833221,272.660950 
	C100.688042,275.052094 102.621521,277.791290 104.683929,280.852509 
z"/>
<path fill="#16173D" opacity="1.000000" stroke="none" 
	d="
M113.889503,90.440277 
	C113.773537,84.914299 113.687508,78.929512 113.706741,72.568703 
	C113.847809,78.122276 113.883621,84.051865 113.889503,90.440277 
z"/>
<path fill="#05073B" opacity="1.000000" stroke="none" 
	d="
M191.050674,346.000977 
	C187.139832,344.963470 183.228989,343.925934 179.070404,342.663635 
	C182.649261,343.290680 186.475845,344.142548 190.684479,345.276794 
	C191.066513,345.559204 191.050674,346.000977 191.050674,346.000977 
z"/>
<path fill="#16173D" opacity="1.000000" stroke="none" 
	d="
M113.875885,67.423378 
	C113.827278,63.107403 113.810616,58.347374 113.913124,53.171402 
	C113.990799,57.496746 113.949310,62.238037 113.875885,67.423378 
z"/>
<path fill="#040945" opacity="1.000000" stroke="none" 
	d="
M115.411789,212.318207 
	C116.007835,214.052734 116.503433,216.221802 116.651466,218.703751 
	C115.921410,218.995239 115.538925,218.973862 115.156441,218.952484 
	C115.208076,216.885925 115.259712,214.819351 115.411789,212.318207 
z"/>
<path fill="#020435" opacity="1.000000" stroke="none" 
	d="
M213.354309,151.504898 
	C213.794220,151.607147 213.732056,151.825058 213.644119,151.896545 
	C210.974762,152.662750 208.393341,153.357452 205.415970,154.123642 
	C205.016983,154.013031 205.013931,153.830933 205.003784,153.375931 
	C207.635910,152.536240 210.275162,151.969452 213.354309,151.504898 
z"/>
<path fill="#05073B" opacity="1.000000" stroke="none" 
	d="
M174.832397,177.296616 
	C174.014099,179.355865 172.907562,181.586182 171.509064,183.974121 
	C172.326141,181.910400 173.435150,179.689041 174.832397,177.296616 
z"/>
<path fill="#080A3A" opacity="1.000000" stroke="none" 
	d="
M191.971268,125.451080 
	C193.701553,124.590675 195.431854,123.730263 197.510010,122.846161 
	C197.857864,122.822456 197.983612,122.994171 197.861877,123.296745 
	C197.416748,124.063293 197.093384,124.527267 196.770004,124.991241 
	C196.770004,124.991241 196.591217,125.008278 196.057739,124.959625 
	C194.339935,125.091011 193.155594,125.271049 191.971268,125.451080 
z"/>
<path fill="#05073B" opacity="1.000000" stroke="none" 
	d="
M171.538513,339.940002 
	C169.912552,339.363464 168.126495,338.494110 166.138290,337.363220 
	C167.750244,337.950165 169.564346,338.798676 171.538513,339.940002 
z"/>
<path fill="#000132" opacity="1.000000" stroke="none" 
	d="
M230.787491,299.071381 
	C229.968552,299.588715 228.777176,300.137268 227.314941,300.606995 
	C228.167725,300.052948 229.291382,299.577789 230.787491,299.071381 
z"/>
<path fill="#090B40" opacity="1.000000" stroke="none" 
	d="
M179.937424,75.788895 
	C181.079941,75.226067 182.222443,74.663239 183.708710,74.395676 
	C184.094879,75.183098 184.137314,75.675255 184.179733,76.167412 
	C182.977692,76.430099 181.775665,76.692787 180.280594,76.684753 
	C179.970856,76.205650 179.954132,75.997276 179.937424,75.788895 
z"/>
<path fill="#030439" opacity="1.000000" stroke="none" 
	d="
M190.913025,233.390076 
	C190.981659,233.081360 191.210388,233.058044 191.782928,233.001343 
	C192.941345,234.169434 193.755951,235.370880 194.615295,236.891724 
	C193.464386,236.032562 192.268753,234.854019 190.913025,233.390076 
z"/>
<path fill="#040736" opacity="1.000000" stroke="none" 
	d="
M168.604492,114.944443 
	C168.928955,115.296745 168.945694,115.764084 168.973907,116.580597 
	C167.660675,117.373581 166.335999,117.817383 164.670319,118.296677 
	C165.651794,117.241264 166.974274,116.150368 168.604492,114.944443 
z"/>
<path fill="#030840" opacity="1.000000" stroke="none" 
	d="
M194.683838,295.029053 
	C193.385513,294.728394 191.851257,294.178284 190.134048,293.400391 
	C191.450043,293.708252 192.948975,294.243896 194.683838,295.029053 
z"/>
<path fill="#323558" opacity="1.000000" stroke="none" 
	d="
M118.034454,301.008179 
	C118.050224,300.602264 118.046295,300.211029 118.018639,299.528198 
	C119.596130,300.616760 121.197357,301.996918 122.919464,303.676819 
	C122.692543,304.004028 122.344742,304.031525 121.521057,303.794250 
	C120.376190,303.013824 119.707214,302.498138 119.038239,301.982483 
	C119.038239,301.982483 119.031357,301.962311 118.906815,301.752045 
	C118.579117,301.276581 118.320641,301.086700 118.006844,300.972137 
	C118.006844,300.972137 118.014763,301.022858 118.034454,301.008179 
z"/>
<path fill="#000132" opacity="1.000000" stroke="none" 
	d="
M44.282234,50.240669 
	C44.975224,49.835938 45.650833,49.875114 46.678993,50.225342 
	C47.040794,50.716827 47.050041,50.897270 47.059288,51.077709 
	C46.369751,51.731827 45.680214,52.385941 44.754482,53.195114 
	C44.433807,52.461639 44.349327,51.573109 44.282234,50.240669 
z"/>
<path fill="#05073B" opacity="1.000000" stroke="none" 
	d="
M161.070908,335.330078 
	C161.027603,335.063660 161.229172,335.049622 161.733154,335.014496 
	C163.187225,335.536652 164.338867,336.079926 165.710526,336.856689 
	C164.392288,336.587616 162.854034,336.085052 161.070908,335.330078 
z"/>
<path fill="#32315E" opacity="1.000000" stroke="none" 
	d="
M180.417419,131.072815 
	C181.795441,130.395599 183.542725,129.703796 185.661697,129.003021 
	C184.284500,129.682114 182.535583,130.370163 180.417419,131.072815 
z"/>
<path fill="#05073B" opacity="1.000000" stroke="none" 
	d="
M176.744507,341.807587 
	C175.749588,341.663696 174.540512,341.262817 173.080826,340.671509 
	C174.063583,340.837616 175.296967,341.194122 176.744507,341.807587 
z"/>
<path fill="#323558" opacity="1.000000" stroke="none" 
	d="
M131.910126,312.721558 
	C130.748306,311.875610 129.440704,310.741608 128.072296,309.273315 
	C129.262451,310.103790 130.513397,311.268646 131.910126,312.721558 
z"/>
<path fill="#05073B" opacity="1.000000" stroke="none" 
	d="
M184.469742,76.063873 
	C184.137314,75.675255 184.094879,75.183098 184.023453,74.320175 
	C184.768631,73.889236 185.542801,73.829071 186.677124,74.056107 
	C187.020233,74.532051 187.003204,74.720787 186.986176,74.909531 
	C186.244034,75.259796 185.501892,75.610069 184.469742,76.063873 
z"/>
<path fill="#030439" opacity="1.000000" stroke="none" 
	d="
M115.176132,219.284531 
	C115.538925,218.973862 115.921410,218.995239 116.589539,219.035004 
	C116.740417,219.849030 116.605644,220.644669 116.359085,221.723099 
	C115.896805,221.209457 115.546310,220.413025 115.176132,219.284531 
z"/>
<path fill="#000132" opacity="1.000000" stroke="none" 
	d="
M231.089371,270.361084 
	C231.303329,270.925781 231.540237,271.910126 231.619339,273.088867 
	C231.345123,272.449066 231.228714,271.614929 231.089371,270.361084 
z"/>
<path fill="#32315E" opacity="1.000000" stroke="none" 
	d="
M186.326996,128.999710 
	C187.165909,128.350372 188.354507,127.675919 189.904327,126.952545 
	C189.069244,127.593941 187.872955,128.284271 186.326996,128.999710 
z"/>
<path fill="#32315E" opacity="1.000000" stroke="none" 
	d="
M191.820770,125.617584 
	C193.155594,125.271049 194.339935,125.091011 195.970734,124.937378 
	C194.790009,125.601059 193.162796,126.238335 191.143036,126.852539 
	C191.057098,126.481010 191.363678,126.132545 191.820770,125.617584 
z"/>
<path fill="#323558" opacity="1.000000" stroke="none" 
	d="
M191.022034,346.007477 
	C191.050674,346.000977 191.066513,345.559204 191.079697,345.338684 
	C192.583969,345.182526 194.075058,345.246918 195.835342,345.569672 
	C196.104538,345.828003 195.948425,346.136200 195.480164,346.221069 
	C193.662994,346.191467 192.314056,346.076996 190.965134,345.962524 
	C190.965134,345.962524 190.993378,346.013977 191.022034,346.007477 
z"/>
<path fill="#0B0D3C" opacity="1.000000" stroke="none" 
	d="
M165.129425,215.260925 
	C165.425507,215.810089 165.727188,216.687225 165.966766,217.810425 
	C165.648132,217.233963 165.391586,216.411423 165.129425,215.260925 
z"/>
<path fill="#0B0D3C" opacity="1.000000" stroke="none" 
	d="
M168.541626,189.931519 
	C168.521393,190.702881 168.243439,191.613251 167.776947,192.834717 
	C167.820236,192.120712 168.052078,191.095627 168.541626,189.931519 
z"/>
<path fill="#05073B" opacity="1.000000" stroke="none" 
	d="
M179.575592,75.820053 
	C179.954132,75.997276 179.970856,76.205650 180.011826,76.726677 
	C179.564575,77.325050 179.093048,77.610786 178.368225,78.005775 
	C177.845230,77.598801 177.575546,77.082573 177.175171,76.307732 
	C177.767578,75.983154 178.490662,75.917191 179.575592,75.820053 
z"/>
<path fill="#32315E" opacity="1.000000" stroke="none" 
	d="
M197.116974,124.996796 
	C197.093384,124.527267 197.416748,124.063293 197.924744,123.382614 
	C198.532028,123.129829 198.954697,123.093765 199.694885,123.033585 
	C199.162903,123.673759 198.313416,124.338051 197.116974,124.996796 
z"/>
<path fill="#040736" opacity="1.000000" stroke="none" 
	d="
M163.018768,277.297424 
	C163.356293,277.020477 163.850418,276.993744 164.715668,276.944763 
	C165.086823,276.922455 165.082184,276.971466 165.063629,277.355835 
	C165.046890,277.993530 165.048691,278.246826 165.050491,278.500092 
	C165.050491,278.500092 165.337540,278.599121 165.142441,278.716187 
	C164.737289,278.853851 164.527237,278.874420 164.317184,278.894989 
	C163.936569,278.445892 163.555954,277.996765 163.018768,277.297424 
z"/>
<path fill="#323558" opacity="1.000000" stroke="none" 
	d="
M124.935333,305.703369 
	C124.583519,305.935120 124.107895,305.901520 123.281311,305.780640 
	C122.927376,305.306549 122.924393,304.919769 122.973129,304.246094 
	C123.620415,304.452209 124.215973,304.945129 124.935333,305.703369 
z"/>
<path fill="#16173D" opacity="1.000000" stroke="none" 
	d="
M112.834991,368.721344 
	C113.041145,368.085999 113.256546,367.487061 113.583221,366.604523 
	C113.527252,367.007874 113.360008,367.694794 113.035477,368.603271 
	C112.878181,368.824768 112.844246,368.757751 112.834991,368.721344 
z"/>
<path fill="#080A3A" opacity="1.000000" stroke="none" 
	d="
M164.556152,279.007935 
	C164.527237,278.874420 164.737289,278.853851 165.266953,278.803101 
	C165.796524,278.902039 165.979446,279.062103 166.239960,279.405701 
	C165.828110,279.412506 165.311630,279.266693 164.556152,279.007935 
z"/>
<path fill="#2A2B56" opacity="1.000000" stroke="none" 
	d="
M114.237556,51.828514 
	C114.001488,51.534477 113.978508,51.081669 113.990295,50.290527 
	C114.166924,50.524708 114.308777,51.097229 114.237556,51.828514 
z"/>
<path fill="#323558" opacity="1.000000" stroke="none" 
	d="
M126.922249,307.783081 
	C126.784431,307.797516 126.524750,307.588470 126.129204,307.167725 
	C126.262352,307.157227 126.531372,307.358398 126.922249,307.783081 
z"/>
<path fill="#030439" opacity="1.000000" stroke="none" 
	d="
M116.088287,224.186752 
	C116.166039,224.101440 116.182251,224.494354 116.166534,224.690079 
	C115.958298,224.711014 115.911545,224.506424 116.088287,224.186752 
z"/>
<path fill="#0B0D3C" opacity="1.000000" stroke="none" 
	d="
M165.076477,214.266693 
	C165.159515,214.198181 165.152390,214.555374 165.128784,214.732132 
	C164.922348,214.741898 164.885117,214.550674 165.076477,214.266693 
z"/>
<path fill="#323558" opacity="1.000000" stroke="none" 
	d="
M127.969345,308.754822 
	C127.776199,308.814148 127.489738,308.625092 127.102142,308.193939 
	C127.292671,308.136749 127.584343,308.321594 127.969345,308.754822 
z"/>
<path fill="#000132" opacity="1.000000" stroke="none" 
	d="
M44.078274,54.178349 
	C44.160015,54.085552 44.150581,54.518559 44.127846,54.733849 
	C43.923946,54.742798 43.887753,54.516800 44.078274,54.178349 
z"/>
<path fill="#000132" opacity="1.000000" stroke="none" 
	d="
M230.104523,269.258667 
	C230.230270,269.224243 230.487183,269.401581 230.875671,269.790527 
	C230.747223,269.829102 230.490036,269.651825 230.104523,269.258667 
z"/>
<path fill="#323558" opacity="1.000000" stroke="none" 
	d="
M132.798706,313.832397 
	C132.638977,313.854828 132.423065,313.616577 132.103241,313.151794 
	C132.287491,313.087555 132.535217,313.303070 132.798706,313.832397 
z"/>
<path fill="#080A3A" opacity="1.000000" stroke="none" 
	d="
M165.136475,278.314667 
	C165.048691,278.246826 165.046890,277.993530 165.039795,277.360474 
	C165.097153,277.363586 165.159805,277.746399 165.136475,278.314667 
z"/>
<path fill="#323558" opacity="1.000000" stroke="none" 
	d="
M125.959534,306.749115 
	C125.761429,306.808624 125.474663,306.619446 125.097168,306.183380 
	C125.294579,306.124481 125.582726,306.312469 125.959534,306.749115 
z"/>
<path fill="#090B40" opacity="1.000000" stroke="none" 
	d="
M187.229553,74.884109 
	C187.003204,74.720787 187.020233,74.532051 187.065521,74.057602 
	C187.093750,73.771896 187.413284,73.683159 187.571777,73.637527 
	C187.768631,73.788109 187.807007,73.984322 187.899750,74.474899 
	C187.954117,74.769279 187.472946,74.858696 187.229553,74.884109 
z"/>
<path fill="#000132" opacity="1.000000" stroke="none" 
	d="
M220.272736,300.448151 
	C220.060760,300.249329 220.074432,299.984222 220.108673,299.321472 
	C220.327271,299.197723 220.525299,299.471558 220.830215,299.978912 
	C220.937103,300.212433 220.498367,300.381897 220.272736,300.448151 
z"/>
<path fill="#040945" opacity="1.000000" stroke="none" 
	d="
M64.188293,304.472107 
	C64.123131,318.954834 64.029015,332.974609 63.939796,347.453979 
	C63.292820,345.587616 62.080288,343.258820 62.091846,340.936127 
	C62.129936,333.285248 62.840141,325.637817 62.879612,317.986908 
	C63.000656,294.523590 63.025558,271.058807 62.914291,247.595444 
	C62.649693,191.797913 62.259109,136.000977 62.029064,80.203339 
	C62.015816,76.988602 62.981438,73.769821 63.749573,70.281708 
	C64.026535,145.681992 64.044579,221.353485 64.068207,297.024994 
	C64.068939,299.353058 64.127663,301.681091 64.188293,304.472107 
z"/>
<path fill="#000132" opacity="1.000000" stroke="none" 
	d="
M64.491409,350.162231 
	C73.742043,349.989532 83.360275,349.979126 93.435326,349.967438 
	C84.214439,350.085571 74.536720,350.205048 64.491409,350.162231 
z"/>
<path fill="#000132" opacity="1.000000" stroke="none" 
	d="
M92.984779,68.970612 
	C83.963348,68.976219 74.941925,68.981827 65.449615,68.983948 
	C72.030785,68.630478 79.081810,68.257591 86.135521,67.945198 
	C88.114677,67.857544 90.101715,67.947792 92.547249,68.220367 
	C93.009361,68.484299 92.984779,68.970612 92.984779,68.970612 
z"/>
<path fill="#090B3D" opacity="1.000000" stroke="none" 
	d="
M47.521614,51.075401 
	C47.050041,50.897270 47.040794,50.716827 47.016052,50.265797 
	C53.699974,50.005310 60.399387,50.015415 67.558739,50.298416 
	C68.018677,50.571308 68.003372,51.049942 68.003372,51.049942 
	C61.330227,51.057659 54.657082,51.065376 47.521614,51.075401 
z"/>
<path fill="#05073B" opacity="1.000000" stroke="none" 
	d="
M191.263184,346.180481 
	C192.314056,346.076996 193.662994,346.191467 195.402130,346.375183 
	C196.723206,346.821198 197.654068,347.198029 198.810699,347.776611 
	C196.544724,347.451721 194.052994,346.925079 191.263184,346.180481 
z"/>
<path fill="#000132" opacity="1.000000" stroke="none" 
	d="
M68.440292,51.054703 
	C68.003372,51.049942 68.018677,50.571308 68.028694,50.332428 
	C70.060539,50.072281 72.082367,50.051014 74.536911,50.048332 
	C74.974388,50.234741 74.979149,50.402565 74.988693,50.822781 
	C72.954720,51.069935 70.915970,51.064701 68.440292,51.054703 
z"/>
<path fill="#090E3F" opacity="1.000000" stroke="none" 
	d="
M119.095528,302.230316 
	C119.707214,302.498138 120.376190,303.013824 121.259247,303.772614 
	C120.699814,303.503235 119.926315,302.990692 119.095528,302.230316 
z"/>
<path fill="#050C4B" opacity="1.000000" stroke="none" 
	d="
M93.239380,68.974091 
	C92.984779,68.970612 93.009361,68.484299 93.017105,68.241013 
	C93.274780,68.180878 93.503685,68.387344 93.857407,68.796936 
	C93.833488,68.977028 93.663734,68.977303 93.239380,68.974091 
z"/>
<path fill="#090E3F" opacity="1.000000" stroke="none" 
	d="
M118.148674,301.163208 
	C118.320641,301.086700 118.579117,301.276581 118.897125,301.755798 
	C118.739548,301.802094 118.499062,301.596924 118.148674,301.163208 
z"/>
</svg>