<svg width="147" height="36" viewBox="0 0 147 36" fill="none" xmlns="http://www.w3.org/2000/svg">
<path d="M40.9378 28V10.72H44.2018V18.688L50.7778 10.72H54.7618L47.5378 19.24L55.2178 28H51.0898L44.2018 20.128V28H40.9378ZM63.5882 28.36C61.8602 28.36 60.3682 27.984 59.1122 27.232C57.8642 26.48 56.9002 25.428 56.2202 24.076C55.5482 22.724 55.2122 21.152 55.2122 19.36C55.2122 17.568 55.5482 15.996 56.2202 14.644C56.9002 13.292 57.8642 12.24 59.1122 11.488C60.3682 10.736 61.8602 10.36 63.5882 10.36C65.5722 10.36 67.2362 10.852 68.5802 11.836C69.9322 12.82 70.8842 14.152 71.4362 15.832L68.1482 16.744C67.8282 15.696 67.2882 14.884 66.5282 14.308C65.7682 13.724 64.7882 13.432 63.5882 13.432C62.4922 13.432 61.5762 13.676 60.8402 14.164C60.1122 14.652 59.5642 15.34 59.1962 16.228C58.8282 17.116 58.6442 18.16 58.6442 19.36C58.6442 20.56 58.8282 21.604 59.1962 22.492C59.5642 23.38 60.1122 24.068 60.8402 24.556C61.5762 25.044 62.4922 25.288 63.5882 25.288C64.7882 25.288 65.7682 24.996 66.5282 24.412C67.2882 23.828 67.8282 23.016 68.1482 21.976L71.4362 22.888C70.8842 24.568 69.9322 25.9 68.5802 26.884C67.2362 27.868 65.5722 28.36 63.5882 28.36ZM74.0784 28V10.72H84.6384V13.984H77.3424V17.728H83.1984V20.992H77.3424V28H74.0784ZM87.045 13.24V10.36H90.309V13.24H87.045ZM87.045 28V15.04H90.309V28H87.045ZM102.739 28V21.88C102.739 21.584 102.723 21.208 102.691 20.752C102.659 20.288 102.559 19.824 102.391 19.36C102.223 18.896 101.947 18.508 101.563 18.196C101.187 17.884 100.651 17.728 99.9546 17.728C99.6746 17.728 99.3746 17.772 99.0546 17.86C98.7346 17.948 98.4346 18.12 98.1546 18.376C97.8746 18.624 97.6426 18.992 97.4586 19.48C97.2826 19.968 97.1946 20.616 97.1946 21.424L95.3226 20.536C95.3226 19.512 95.5306 18.552 95.9466 17.656C96.3626 16.76 96.9866 16.036 97.8186 15.484C98.6586 14.932 99.7146 14.656 100.987 14.656C102.003 14.656 102.831 14.828 103.471 15.172C104.111 15.516 104.607 15.952 104.959 16.48C105.319 17.008 105.575 17.56 105.727 18.136C105.879 18.704 105.971 19.224 106.003 19.696C106.035 20.168 106.051 20.512 106.051 20.728V28H102.739ZM93.8826 28V15.04H96.7866V19.336H97.1946V28H93.8826ZM114.186 28.36C112.994 28.36 111.95 28.06 111.054 27.46C110.158 26.86 109.458 26.044 108.954 25.012C108.458 23.98 108.21 22.816 108.21 21.52C108.21 20.2 108.462 19.028 108.966 18.004C109.478 16.972 110.194 16.16 111.114 15.568C112.034 14.976 113.114 14.68 114.354 14.68C115.586 14.68 116.622 14.98 117.462 15.58C118.302 16.18 118.938 16.996 119.37 18.028C119.802 19.06 120.018 20.224 120.018 21.52C120.018 22.816 119.798 23.98 119.358 25.012C118.926 26.044 118.278 26.86 117.414 27.46C116.55 28.06 115.474 28.36 114.186 28.36ZM114.714 25.456C115.442 25.456 116.022 25.292 116.454 24.964C116.894 24.636 117.21 24.176 117.402 23.584C117.594 22.992 117.69 22.304 117.69 21.52C117.69 20.736 117.594 20.048 117.402 19.456C117.21 18.864 116.902 18.404 116.478 18.076C116.062 17.748 115.514 17.584 114.834 17.584C114.106 17.584 113.506 17.764 113.034 18.124C112.57 18.476 112.226 18.952 112.002 19.552C111.778 20.144 111.666 20.8 111.666 21.52C111.666 22.248 111.774 22.912 111.99 23.512C112.206 24.104 112.538 24.576 112.986 24.928C113.434 25.28 114.01 25.456 114.714 25.456ZM117.69 28V19.12H117.282V10.72H120.57V28H117.69ZM129.954 28.36C128.626 28.36 127.454 28.076 126.438 27.508C125.43 26.932 124.638 26.144 124.062 25.144C123.494 24.136 123.21 22.984 123.21 21.688C123.21 20.272 123.49 19.04 124.05 17.992C124.61 16.944 125.382 16.132 126.366 15.556C127.35 14.972 128.482 14.68 129.762 14.68C131.122 14.68 132.278 15 133.23 15.64C134.182 16.28 134.886 17.18 135.342 18.34C135.798 19.5 135.958 20.864 135.822 22.432H132.594V21.232C132.594 19.912 132.382 18.964 131.958 18.388C131.542 17.804 130.858 17.512 129.906 17.512C128.794 17.512 127.974 17.852 127.446 18.532C126.926 19.204 126.666 20.2 126.666 21.52C126.666 22.728 126.926 23.664 127.446 24.328C127.974 24.984 128.746 25.312 129.762 25.312C130.402 25.312 130.95 25.172 131.406 24.892C131.862 24.612 132.21 24.208 132.45 23.68L135.714 24.616C135.226 25.8 134.454 26.72 133.398 27.376C132.35 28.032 131.202 28.36 129.954 28.36ZM125.658 22.432V20.008H134.25V22.432H125.658ZM138.532 28V15.04H141.412V18.208L141.1 17.8C141.268 17.352 141.492 16.944 141.772 16.576C142.052 16.208 142.396 15.904 142.804 15.664C143.116 15.472 143.456 15.324 143.824 15.22C144.192 15.108 144.572 15.04 144.964 15.016C145.356 14.984 145.748 14.992 146.14 15.04V18.088C145.78 17.976 145.36 17.94 144.88 17.98C144.408 18.012 143.98 18.12 143.596 18.304C143.212 18.48 142.888 18.716 142.624 19.012C142.36 19.3 142.16 19.644 142.024 20.044C141.888 20.436 141.82 20.88 141.82 21.376V28H138.532Z" fill="white"/>
<path d="M0 0H9.14053V12.8934H4.84725C2.17019 12.8934 0 10.6233 0 7.82294V0Z" fill="#FF0000"/>
<path d="M0 36H9.14053V23.1066H4.84725C2.17019 23.1066 0 25.3767 0 28.1771V36Z" fill="#000066"/>
<path d="M21.1202 0H34L19.2747 15.8614C17.1601 18.1391 13.6469 18.0786 11.6051 15.7293L9.14053 12.8934L21.1202 0Z" fill="#FF0000"/>
<path d="M21.1202 36H34L19.2747 20.1386C17.1601 17.8609 13.6469 17.9214 11.6051 20.2707L9.14053 23.1066L21.1202 36Z" fill="#000066"/>
</svg>
